<?xml version="1.0" encoding="iso-8859-1"?>
<!-- Generator: Adobe Illustrator 19.0.0, SVG Export Plug-In . SVG Version: 6.00 Build 0)  -->
<svg version="1.1" id="Layer_1" xmlns="http://www.w3.org/2000/svg" xmlns:xlink="http://www.w3.org/1999/xlink" x="0px" y="0px"
	 viewBox="0 0 512 512" style="enable-background:new 0 0 512 512;" xml:space="preserve">
<path style="fill:#3E3D42;" d="M194.832,166.638C132.905,53.6,26.885,50.647,26.885,50.647c-10.736,0.655-19.147,9.484-19.28,20.24
	c-1.283,103.55,28.582,148.469,42.883,163.992c7.252,38.199,33.917,50.579,57.496,49.14L194.832,166.638z"/>
<path style="fill:#1D1D1F;" d="M72.822,274.088c10.58,7.856,23.263,10.656,35.163,9.93l86.848-117.38
	c-8.333-15.211-17.47-28.413-27.035-39.899C114.824,156.037,77.694,210.615,72.822,274.088z"/>
<path style="fill:#FFC477;" d="M79.528,90.383C62.897,82.931,48.194,79.447,38.46,77.574c-4.573-0.879-5.516,2.365-5.516,4.435
	c0.919,90.237,27.724,126.503,36.188,135.69l4.911,5.33l1.352,7.119c2.905,15.307,10.25,28.173,32.305,33.496l56.765-98.586
	C142.761,131.025,114.247,105.94,79.528,90.383z"/>
<path style="fill:#FFA733;" d="M78.477,240.871c4.299,10.429,12.563,18.754,29.222,22.776l56.765-98.586
	c-5.583-8.755-11.624-16.906-18.098-24.466C113.633,165.126,89.295,200.27,78.477,240.871z"/>
<path style="fill:#3E3D42;" d="M317.168,166.638C379.095,53.6,485.115,50.647,485.115,50.647c10.736,0.655,19.147,9.484,19.28,20.24
	c1.283,103.55-28.582,148.47-42.884,163.992c-7.252,38.199-33.917,50.579-57.496,49.14L317.168,166.638z"/>
<path style="fill:#1D1D1F;" d="M439.178,274.088c-10.58,7.856-23.263,10.656-35.163,9.93l-86.848-117.38
	c8.333-15.211,17.47-28.413,27.035-39.899C397.176,156.037,434.306,210.615,439.178,274.088z"/>
<path style="fill:#FFC477;" d="M432.472,90.383c16.631-7.452,31.333-10.936,41.068-12.809c4.573-0.879,5.516,2.365,5.516,4.435
	c-0.919,90.237-27.724,126.503-36.188,135.69l-4.911,5.33l-1.352,7.119c-2.905,15.307-10.25,28.173-32.305,33.496l-56.765-98.586
	C369.239,131.025,397.753,105.94,432.472,90.383z"/>
<path style="fill:#FFA733;" d="M433.523,240.871c-4.299,10.429-12.563,18.754-29.222,22.776l-56.765-98.586
	c5.583-8.755,11.624-16.906,18.098-24.466C398.367,165.126,422.705,200.27,433.523,240.871z"/>
<path style="fill:#57565C;" d="M410.943,288.346c0,85.12-69.003,173.092-154.123,173.092s-154.123-87.972-154.123-173.092
	s69.003-154.123,154.123-154.123S410.943,203.225,410.943,288.346z"/>
<g>
	<path style="fill:#3E3D42;" d="M138.671,288.346c0-79.034,59.493-144.163,136.137-153.073c-5.902-0.686-11.902-1.051-17.987-1.051
		c-85.12,0-154.123,69.003-154.123,154.123S171.7,461.437,256.82,461.437c6.086,0,12.085-0.464,17.987-1.33
		C198.163,448.858,138.671,367.379,138.671,288.346z"/>
	<path style="fill:#3E3D42;" d="M326.429,195.489c-15.193-11.422-33.102-18.987-51.786-21.878c-4.151-0.642-6.995-4.528-6.354-8.678
		c0.641-4.15,4.516-7.001,8.679-6.353c21.149,3.271,41.414,11.831,58.601,24.75c3.357,2.524,4.138,7.373,1.509,10.648
		C333.387,198.58,327.799,196.519,326.429,195.489z"/>
	<path style="fill:#3E3D42;" d="M349.47,218.462c-2.315-3.061-4.809-6.042-7.413-8.856c-2.852-3.084-2.665-7.895,0.42-10.748
		c3.084-2.852,7.896-2.664,10.747,0.42c2.943,3.182,5.762,6.549,8.379,10.009c2.533,3.35,1.991,8.286-1.478,10.653
		C355.765,222.917,350.965,220.441,349.47,218.462z"/>
</g>
<path style="fill:#FFDAAA;" d="M343.361,428.799c-12.48-3.378-22.66-11.146-27.659-25.848
	c-20.155-59.278-58.883-56.907-58.883-56.907s-38.729-2.371-58.883,56.907c-4.999,14.703-15.179,22.471-27.658,25.848
	c24.672,20.132,54.459,32.639,86.542,32.639C288.902,461.437,318.69,448.93,343.361,428.799z"/>
<g>
	<path style="fill:#FFC477;" d="M191.477,415.207c-5.439,7.037-12.793,11.316-21.199,13.592
		c24.671,20.132,54.459,32.639,86.542,32.639c6.085,0,12.087-0.452,17.988-1.318c0-0.004,0-0.008,0-0.012
		C243.091,455.451,214.319,438.763,191.477,415.207z"/>
	<path style="fill:#FFC477;" d="M216.348,297.83L216.348,297.83c0,0-25.791-19.957-57.276,15.312
		c0.471-0.526,47.496,8.201,50.127,8.201c7.093,0,12.844-5.751,12.844-12.844C222.042,304.053,219.782,300.135,216.348,297.83z"/>
	<path style="fill:#FFC477;" d="M298.489,297.83L298.489,297.83c0,0,25.791-19.957,57.276,15.312
		c-0.47-0.526-47.496,8.201-50.127,8.201c-7.093,0-12.844-5.751-12.844-12.844C292.794,304.053,295.054,300.135,298.489,297.83z"/>
</g>
<circle style="fill:#FFFFFF;" cx="181.632" cy="328.948" r="27.561"/>
<path style="fill:#2D2D30;" d="M181.635,341.304c-6.812,0-12.354-5.542-12.354-12.354c0-6.812,5.542-12.354,12.354-12.354
	c6.812,0,12.354,5.542,12.354,12.354C193.989,335.762,188.447,341.304,181.635,341.304z"/>
<circle style="fill:#FFFFFF;" cx="333.39" cy="328.948" r="27.561"/>
<path style="fill:#2D2D30;" d="M333.386,341.304c-6.812,0-12.354-5.542-12.354-12.354c0-6.812,5.542-12.354,12.354-12.354
	s12.355,5.542,12.355,12.354C345.741,335.762,340.198,341.304,333.386,341.304z"/>
<path style="fill:#3E3D42;" d="M279.147,381.807c0,12.332-9.996,21.142-22.328,21.142c-12.332,0-22.328-8.811-22.328-21.142
	s9.997-14.424,22.328-14.424C269.151,367.382,279.147,369.475,279.147,381.807z"/>
<path style="fill:#2D2D30;" d="M244.293,381.807c0-10.647,7.454-13.659,17.427-14.285c-1.578-0.099-3.216-0.14-4.901-0.14
	c-12.332,0-22.328,2.093-22.328,14.424s9.997,21.142,22.328,21.142c1.684,0,3.323-0.17,4.901-0.486
	C251.748,400.471,244.293,392.454,244.293,381.807z"/>
<path d="M256.819,359.777c-7.403,0-29.934,0-29.934,22.03c0,16.12,13.148,28.748,29.934,28.748
	c16.784,0,29.933-12.628,29.933-28.748C286.752,359.777,264.223,359.777,256.819,359.777z M249.651,393.796
	c0.03-0.276,0.05-0.554,0.05-0.833c0-1.998-0.811-3.955-2.221-5.374c-1.307-1.307-3.07-2.09-4.909-2.206
	c-0.301-1.13-0.475-2.32-0.475-3.574c0-3.507,0-6.819,14.724-6.819c14.723,0,14.723,3.313,14.723,6.819
	c0,1.253-0.174,2.445-0.476,3.574c-1.83,0.118-3.593,0.899-4.899,2.206c-1.42,1.41-2.231,3.377-2.231,5.374
	c0,0.28,0.019,0.558,0.051,0.833c-2.086,0.996-4.513,1.548-7.168,1.548C254.165,395.344,251.737,394.791,249.651,393.796z"/>
<path d="M181.635,293.781c-19.393,0-35.169,15.777-35.169,35.17s15.777,35.169,35.169,35.169s35.169-15.777,35.169-35.169
	S201.028,293.781,181.635,293.781z M181.635,348.91c-11.006,0-19.959-8.954-19.959-19.959s8.954-19.96,19.959-19.96
	c11.005,0,19.959,8.954,19.959,19.96S192.641,348.91,181.635,348.91z"/>
<path d="M333.386,293.781c-19.392,0-35.169,15.777-35.169,35.17s15.777,35.169,35.169,35.169c19.393,0,35.17-15.777,35.17-35.169
	S352.779,293.781,333.386,293.781z M333.386,348.91c-11.005,0-19.959-8.954-19.959-19.959s8.954-19.96,19.959-19.96
	c11.006,0,19.96,8.954,19.96,19.96S344.392,348.91,333.386,348.91z"/>
<path d="M15.959,160.917c4.118-0.829,6.783-4.841,5.952-8.958c-0.541-2.687-1.057-5.445-1.531-8.199
	c-0.714-4.139-4.645-6.918-8.787-6.203c-4.139,0.714-6.917,4.647-6.203,8.786c0.499,2.894,1.007,5.802,1.61,8.621
	C8.832,163.512,15.452,161.02,15.959,160.917z"/>
<path d="M512,70.791c0-29.977-26.873-27.754-27.097-27.748c-0.941,0.026-23.386,0.774-53.792,12.266
	c-3.929,1.485-5.911,5.873-4.425,9.803s5.873,5.911,9.803,4.425c25.931-9.801,45.757-11.133,48.512-11.275
	c6.559,0.579,11.708,6.098,11.791,12.717c1.261,101.868-28.163,144.95-40.873,158.744c-0.962,1.045-1.614,2.339-1.879,3.735
	c-5.685,29.946-23.389,39.232-36.009,41.966c-4.32-54.393-35.665-101.294-80.575-127.233c21.046-30.48,47.639-53.978,79.154-69.904
	c3.748-1.894,5.253-6.468,3.358-10.217c-1.895-3.75-6.468-5.253-10.218-3.358c-34.371,17.368-63.237,43.083-85.907,76.458
	c-20.431-9.341-43.128-14.555-67.022-14.555c-24.375,0-47.503,5.431-68.252,15.13c-32.945-48.732-74.014-72.897-103.091-84.643
	c-32.683-13.2-57.347-14.028-58.381-14.056l-0.338-0.009c0,0-26.8-2.979-26.759,27.758c0.024,18.524,0.527,36.246,2.248,52.675
	c0.437,4.178,4.183,7.213,8.356,6.772c4.178-0.437,7.209-4.179,6.772-8.356c-1.659-15.843-2.388-32.97-2.166-50.903
	c0.082-6.62,5.233-12.14,11.793-12.718c5.968,0.304,90.068,6.175,148.011,90.622c-44.362,26.122-75.239,72.793-79.431,126.836
	c-12.463-2.317-31.695-11.045-37.621-42.261l-0.405-2.136l-1.473-1.599c-6.822-7.404-19.671-24.646-29.074-56.923
	c-1.175-4.034-5.397-6.349-9.428-5.175c-4.033,1.175-6.35,5.397-5.175,9.428c9.267,31.809,21.727,50.763,31.04,61.363
	c6.34,29.738,25.345,48.979,51.681,52.665c0.701,42.649,17.71,86.479,46.932,120.669c31.576,36.945,72.332,57.29,114.763,57.29
	s83.187-20.345,114.763-57.29c29.283-34.262,46.301-78.205,46.935-120.939c14.494-2.514,41.618-12.581,50.041-52.399
	c7.888-8.985,18.585-24.647,27.421-50.021C507.178,156.235,512,116.672,512,70.791z M185.075,430.764
	c9.42-5.613,16.263-14.194,20.061-25.366c17.842-52.474,52.068-51.76,52.068-51.76c1.363-0.058,33.456-0.717,51.298,51.76
	c3.798,11.171,10.64,19.753,20.061,25.366c-20.936,14.363-45.283,23.068-71.744,23.068
	C230.358,453.832,206.013,445.126,185.075,430.764z M341.997,420.383c-9.458-3.457-15.729-9.983-19.094-19.882
	c-20.829-61.264-61.047-62.194-66.084-62.069c-5.048-0.111-45.256,0.814-66.083,62.069c-3.366,9.899-9.636,16.425-19.094,19.882
	c-37.685-32.571-61.34-84.047-61.34-132.039c0-80.79,65.728-146.518,146.518-146.518s146.517,65.729,146.517,146.518
	C403.337,336.336,379.682,387.812,341.997,420.383z"/>
<g>
</g>
<g>
</g>
<g>
</g>
<g>
</g>
<g>
</g>
<g>
</g>
<g>
</g>
<g>
</g>
<g>
</g>
<g>
</g>
<g>
</g>
<g>
</g>
<g>
</g>
<g>
</g>
<g>
</g>
</svg>
